REM DIRINDEX 1\2,1\3,1\4,1\5
REM DIRNAME "folder01","folder02","folder03","folder04","folder05"
TITLE ""
FILE "P1Q_t_0868-0877.mp3" MP3
  TRACK 01 AUDIO
    TITLE "3:cjc173_3551"
    INDEX 01 00:00:00
  TRACK 02 AUDIO
    TITLE "0:"
    INDEX 01 00:01:14
  TRACK 03 AUDIO
    TITLE "4:cjc173_3552"
    INDEX 01 00:01:33
  TRACK 04 AUDIO
    TITLE "0:"
    INDEX 01 00:03:63
  TRACK 05 AUDIO
    TITLE "5:cjc173_3553"
    INDEX 01 00:04:08
  TRACK 06 AUDIO
    TITLE "0:"
    INDEX 01 00:08:39
  TRACK 07 AUDIO
    TITLE "3:cjc173_3554"
    INDEX 01 00:09:11
  TRACK 08 AUDIO
    TITLE "0:"
    INDEX 01 00:10:19
  TRACK 09 AUDIO
    TITLE "4:cjc173_3555"
    INDEX 01 00:10:38
  TRACK 10 AUDIO
    TITLE "0:"
    INDEX 01 00:13:19
  TRACK 11 AUDIO
    TITLE "5:cjc173_3556"
    INDEX 01 00:13:38
  TRACK 12 AUDIO
    TITLE "0:"
    INDEX 01 00:17:28
  TRACK 13 AUDIO
    TITLE "3:cjc173_3557"
    INDEX 01 00:18:02
  TRACK 14 AUDIO
    TITLE "0:"
    INDEX 01 00:19:19
  TRACK 15 AUDIO
    TITLE "4:cjc173_3558"
    INDEX 01 00:19:41
  TRACK 16 AUDIO
    TITLE "0:"
    INDEX 01 00:22:14
  TRACK 17 AUDIO
    TITLE "5:cjc173_3559"
    INDEX 01 00:22:33
  TRACK 18 AUDIO
    TITLE "0:"
    INDEX 01 00:26:51
  TRACK 19 AUDIO
    TITLE "3:cjc173_3560"
    INDEX 01 00:27:21
  TRACK 20 AUDIO
    TITLE "0:"
    INDEX 01 00:28:38
  TRACK 21 AUDIO
    TITLE "4:cjc173_3561"
    INDEX 01 00:28:60
  TRACK 22 AUDIO
    TITLE "0:"
    INDEX 01 00:31:05
  TRACK 23 AUDIO
    TITLE "5:cjc173_3562"
    INDEX 01 00:31:23
  TRACK 24 AUDIO
    TITLE "0:"
    INDEX 01 00:35:56
  TRACK 25 AUDIO
    TITLE "3:cjc173_3563"
    INDEX 01 00:36:26
  TRACK 26 AUDIO
    TITLE "0:"
    INDEX 01 00:37:58
  TRACK 27 AUDIO
    TITLE "4:cjc173_3564"
    INDEX 01 00:38:05
  TRACK 28 AUDIO
    TITLE "0:"
    INDEX 01 00:39:34
  TRACK 29 AUDIO
    TITLE "5:cjc173_3565"
    INDEX 01 00:39:55
  TRACK 30 AUDIO
    TITLE "0:"
    INDEX 01 00:43:43
  TRACK 31 AUDIO
    TITLE "3:cjc173_3566"
    INDEX 01 00:44:15
  TRACK 32 AUDIO
    TITLE "0:"
    INDEX 01 00:45:33
  TRACK 33 AUDIO
    TITLE "4:cjc173_3567"
    INDEX 01 00:45:54
  TRACK 34 AUDIO
    TITLE "0:"
    INDEX 01 00:48:13
  TRACK 35 AUDIO
    TITLE "5:cjc173_3568"
    INDEX 01 00:48:33
  TRACK 36 AUDIO
    TITLE "0:"
    INDEX 01 00:52:58
  TRACK 37 AUDIO
    TITLE "3:cjc173_3569"
    INDEX 01 00:53:32
  TRACK 38 AUDIO
    TITLE "0:"
    INDEX 01 00:54:41
  TRACK 39 AUDIO
    TITLE "4:cjc173_3570"
    INDEX 01 00:54:61
  TRACK 40 AUDIO
    TITLE "0:"
    INDEX 01 00:57:34
  TRACK 41 AUDIO
    TITLE "5:cjc173_3571"
    INDEX 01 00:57:53
  TRACK 42 AUDIO
    TITLE "0:"
    INDEX 01 01:01:71
  TRACK 43 AUDIO
    TITLE "3:cjc173_3572"
    INDEX 01 01:02:43
  TRACK 44 AUDIO
    TITLE "0:"
    INDEX 01 01:03:68
  TRACK 45 AUDIO
    TITLE "4:cjc173_3573"
    INDEX 01 01:04:14
  TRACK 46 AUDIO
    TITLE "0:"
    INDEX 01 01:07:05
  TRACK 47 AUDIO
    TITLE "5:cjc173_3574"
    INDEX 01 01:07:28
  TRACK 48 AUDIO
    TITLE "0:"
    INDEX 01 01:12:43
  TRACK 49 AUDIO
    TITLE "3:cjc173_3575"
    INDEX 01 01:13:15
  TRACK 50 AUDIO
    TITLE "0:"
    INDEX 01 01:14:17
  TRACK 51 AUDIO
    TITLE "4:cjc173_3576"
    INDEX 01 01:14:42
  TRACK 52 AUDIO
    TITLE "0:"
    INDEX 01 01:16:13
  TRACK 53 AUDIO
    TITLE "5:cjc173_3577"
    INDEX 01 01:16:33
  TRACK 54 AUDIO
    TITLE "0:"
    INDEX 01 01:19:65
  TRACK 55 AUDIO
    TITLE "3:cjc173_3578"
    INDEX 01 01:20:39
  TRACK 56 AUDIO
    TITLE "0:"
    INDEX 01 01:21:46
  TRACK 57 AUDIO
    TITLE "4:cjc173_3579"
    INDEX 01 01:21:70
  TRACK 58 AUDIO
    TITLE "0:"
    INDEX 01 01:26:53
  TRACK 59 AUDIO
    TITLE "5:cjc173_3580"
    INDEX 01 01:27:00
  TRACK 60 AUDIO
    TITLE "0:"
    INDEX 01 01:31:70
